<?xml version="1.0" encoding="UTF-8" standalone="no"?>
<!DOCTYPE svg PUBLIC "-//W3C//DTD SVG 1.1//EN"
 "http://www.w3.org/Graphics/SVG/1.1/DTD/svg11.dtd">
<!-- Generated by graphviz version 2.38.0 (20140413.2041)
 -->
<!-- Title: %3 Pages: 1 -->
<svg width="1490pt" height="980pt"
 viewBox="0.00 0.00 1490.00 980.00" xmlns="http://www.w3.org/2000/svg" xmlns:xlink="http://www.w3.org/1999/xlink">
<g id="graph0" class="graph" transform="scale(1 1) rotate(0) translate(4 976)">
<title>%3</title>
<polygon fill="white" stroke="none" points="-4,4 -4,-976 1486,-976 1486,4 -4,4"/>
<!-- 0 -->
<g id="node1" class="node"><title>0</title>
<ellipse fill="none" stroke="black" cx="929" cy="-810" rx="27" ry="18"/>
<text text-anchor="middle" x="929" y="-806.3" font-family="Times,serif" font-size="14.00">B</text>
</g>
<!-- 1 -->
<g id="node2" class="node"><title>1</title>
<ellipse fill="none" stroke="black" cx="857" cy="-738" rx="27" ry="18"/>
<text text-anchor="middle" x="857" y="-734.3" font-family="Times,serif" font-size="14.00">X</text>
</g>
<!-- 0&#45;&gt;1 -->
<g id="edge1" class="edge"><title>0&#45;&gt;1</title>
<path fill="none" stroke="black" d="M914.43,-794.834C904.25,-784.938 890.476,-771.546 878.969,-760.359"/>
<polygon fill="black" stroke="black" points="881.405,-757.846 871.796,-753.385 876.526,-762.865 881.405,-757.846"/>
</g>
<!-- 19 -->
<g id="node20" class="node"><title>19</title>
<ellipse fill="none" stroke="black" cx="1191" cy="-594" rx="27" ry="18"/>
<text text-anchor="middle" x="1191" y="-590.3" font-family="Times,serif" font-size="14.00">Y</text>
</g>
<!-- 0&#45;&gt;19 -->
<g id="edge33" class="edge"><title>0&#45;&gt;19</title>
<path fill="none" stroke="black" d="M935.385,-792.472C948.739,-760.037 982.695,-687.755 1034,-648 1069.65,-620.374 1120.52,-606.707 1154.6,-600.263"/>
<polygon fill="black" stroke="black" points="1155.36,-603.682 1164.6,-598.488 1154.14,-596.79 1155.36,-603.682"/>
</g>
<!-- 3 -->
<g id="node4" class="node"><title>3</title>
<ellipse fill="none" stroke="black" cx="857" cy="-666" rx="27" ry="18"/>
<text text-anchor="middle" x="857" y="-662.3" font-family="Times,serif" font-size="14.00">F</text>
</g>
<!-- 1&#45;&gt;3 -->
<g id="edge8" class="edge"><title>1&#45;&gt;3</title>
<path fill="none" stroke="black" d="M857,-719.697C857,-711.983 857,-702.712 857,-694.112"/>
<polygon fill="black" stroke="black" points="860.5,-694.104 857,-684.104 853.5,-694.104 860.5,-694.104"/>
</g>
<!-- 23 -->
<g id="node24" class="node"><title>23</title>
<ellipse fill="none" stroke="black" cx="380" cy="-234" rx="27" ry="18"/>
<text text-anchor="middle" x="380" y="-230.3" font-family="Times,serif" font-size="14.00">E</text>
</g>
<!-- 1&#45;&gt;23 -->
<g id="edge93" class="edge"><title>1&#45;&gt;23</title>
<path fill="none" stroke="black" d="M829.971,-736.668C748.648,-735.191 507.968,-727.186 445,-684 329.185,-604.57 335.897,-534.872 315,-396 307.856,-348.526 292.085,-331.213 313,-288 320.739,-272.011 335.901,-259.383 349.846,-250.47"/>
<polygon fill="black" stroke="black" points="351.957,-253.286 358.745,-245.151 348.366,-247.277 351.957,-253.286"/>
</g>
<!-- 2 -->
<g id="node3" class="node"><title>2</title>
<ellipse fill="none" stroke="black" cx="918" cy="-882" rx="27" ry="18"/>
<text text-anchor="middle" x="918" y="-878.3" font-family="Times,serif" font-size="14.00">V</text>
</g>
<!-- 2&#45;&gt;3 -->
<g id="edge2" class="edge"><title>2&#45;&gt;3</title>
<path fill="none" stroke="black" d="M934.913,-867.713C945.791,-858.029 958.978,-843.867 965,-828 970.677,-813.041 970.581,-806.995 965,-792 948.572,-747.859 908.776,-708.91 882.354,-686.657"/>
<polygon fill="black" stroke="black" points="884.24,-683.677 874.292,-680.033 879.797,-689.086 884.24,-683.677"/>
</g>
<!-- 9 -->
<g id="node10" class="node"><title>9</title>
<ellipse fill="none" stroke="black" cx="857" cy="-810" rx="27" ry="18"/>
<text text-anchor="middle" x="857" y="-806.3" font-family="Times,serif" font-size="14.00">H</text>
</g>
<!-- 2&#45;&gt;9 -->
<g id="edge29" class="edge"><title>2&#45;&gt;9</title>
<path fill="none" stroke="black" d="M905.063,-866.155C896.814,-856.689 885.965,-844.238 876.662,-833.563"/>
<polygon fill="black" stroke="black" points="879.126,-831.063 869.918,-825.824 873.849,-835.662 879.126,-831.063"/>
</g>
<!-- 10 -->
<g id="node11" class="node"><title>10</title>
<ellipse fill="none" stroke="black" cx="1070" cy="-666" rx="27" ry="18"/>
<text text-anchor="middle" x="1070" y="-662.3" font-family="Times,serif" font-size="14.00">Q</text>
</g>
<!-- 2&#45;&gt;10 -->
<g id="edge43" class="edge"><title>2&#45;&gt;10</title>
<path fill="none" stroke="black" d="M936.118,-868.572C949.628,-858.68 967.927,-843.898 981,-828 999.7,-805.259 1037.63,-731.762 1057.39,-692.416"/>
<polygon fill="black" stroke="black" points="1060.66,-693.71 1062,-683.2 1054.4,-690.578 1060.66,-693.71"/>
</g>
<!-- 20 -->
<g id="node21" class="node"><title>20</title>
<ellipse fill="none" stroke="black" cx="481" cy="-666" rx="27" ry="18"/>
<text text-anchor="middle" x="481" y="-662.3" font-family="Times,serif" font-size="14.00">G</text>
</g>
<!-- 2&#45;&gt;20 -->
<g id="edge75" class="edge"><title>2&#45;&gt;20</title>
<path fill="none" stroke="black" d="M896.923,-870.678C825.829,-835.864 594.655,-722.657 511.307,-681.841"/>
<polygon fill="black" stroke="black" points="512.642,-678.598 502.121,-677.343 509.563,-684.885 512.642,-678.598"/>
</g>
<!-- 14 -->
<g id="node15" class="node"><title>14</title>
<ellipse fill="none" stroke="black" cx="893" cy="-522" rx="27" ry="18"/>
<text text-anchor="middle" x="893" y="-518.3" font-family="Times,serif" font-size="14.00">O</text>
</g>
<!-- 3&#45;&gt;14 -->
<g id="edge100" class="edge"><title>3&#45;&gt;14</title>
<path fill="none" stroke="black" d="M868.603,-649.68C875.578,-639.557 883.879,-625.677 888,-612 894.056,-591.904 895.098,-568.122 894.74,-550.2"/>
<polygon fill="black" stroke="black" points="898.236,-550.009 894.381,-540.14 891.24,-550.259 898.236,-550.009"/>
</g>
<!-- 15 -->
<g id="node16" class="node"><title>15</title>
<ellipse fill="none" stroke="black" cx="739" cy="-378" rx="27" ry="18"/>
<text text-anchor="middle" x="739" y="-374.3" font-family="Times,serif" font-size="14.00">P</text>
</g>
<!-- 3&#45;&gt;15 -->
<g id="edge11" class="edge"><title>3&#45;&gt;15</title>
<path fill="none" stroke="black" d="M850.146,-648.387C830.471,-600.702 773.704,-463.114 749.807,-405.193"/>
<polygon fill="black" stroke="black" points="752.923,-403.568 745.873,-395.659 746.452,-406.238 752.923,-403.568"/>
</g>
<!-- 3&#45;&gt;19 -->
<g id="edge90" class="edge"><title>3&#45;&gt;19</title>
<path fill="none" stroke="black" d="M882.378,-659.681C941.336,-647.325 1087.68,-616.654 1155.48,-602.445"/>
<polygon fill="black" stroke="black" points="1156.59,-605.788 1165.66,-600.311 1155.15,-598.936 1156.59,-605.788"/>
</g>
<!-- 3&#45;&gt;23 -->
<g id="edge79" class="edge"><title>3&#45;&gt;23</title>
<path fill="none" stroke="black" d="M831.253,-660.029C812.176,-656.435 785.519,-651.598 762,-648 636.667,-628.827 590.503,-672.358 479,-612 396.373,-567.273 342,-544.956 342,-451 342,-451 342,-451 342,-377 342,-335.406 357.403,-289.217 368.596,-261.143"/>
<polygon fill="black" stroke="black" points="371.928,-262.242 372.492,-251.662 365.454,-259.581 371.928,-262.242"/>
</g>
<!-- 4 -->
<g id="node5" class="node"><title>4</title>
<ellipse fill="none" stroke="black" cx="802" cy="-954" rx="27" ry="18"/>
<text text-anchor="middle" x="802" y="-950.3" font-family="Times,serif" font-size="14.00">K</text>
</g>
<!-- 5 -->
<g id="node6" class="node"><title>5</title>
<ellipse fill="none" stroke="black" cx="509" cy="-882" rx="27" ry="18"/>
<text text-anchor="middle" x="509" y="-878.3" font-family="Times,serif" font-size="14.00">C</text>
</g>
<!-- 4&#45;&gt;5 -->
<g id="edge3" class="edge"><title>4&#45;&gt;5</title>
<path fill="none" stroke="black" d="M777.019,-947.032C724.69,-934.53 603.471,-905.57 543.657,-891.28"/>
<polygon fill="black" stroke="black" points="544.457,-887.873 533.918,-888.953 542.831,-894.681 544.457,-887.873"/>
</g>
<!-- 6 -->
<g id="node7" class="node"><title>6</title>
<ellipse fill="none" stroke="black" cx="1155" cy="-810" rx="27" ry="18"/>
<text text-anchor="middle" x="1155" y="-806.3" font-family="Times,serif" font-size="14.00">S</text>
</g>
<!-- 4&#45;&gt;6 -->
<g id="edge72" class="edge"><title>4&#45;&gt;6</title>
<path fill="none" stroke="black" d="M825.915,-945.33C856.045,-935.514 909.292,-917.659 954,-900 1015.19,-875.831 1085.12,-843.854 1124.27,-825.545"/>
<polygon fill="black" stroke="black" points="1125.96,-828.614 1133.53,-821.198 1122.99,-822.277 1125.96,-828.614"/>
</g>
<!-- 11 -->
<g id="node12" class="node"><title>11</title>
<ellipse fill="none" stroke="black" cx="950" cy="-162" rx="27" ry="18"/>
<text text-anchor="middle" x="950" y="-158.3" font-family="Times,serif" font-size="14.00">W</text>
</g>
<!-- 4&#45;&gt;11 -->
<g id="edge97" class="edge"><title>4&#45;&gt;11</title>
<path fill="none" stroke="black" d="M829.076,-953.225C955.548,-953.566 1482,-946.828 1482,-811 1482,-811 1482,-811 1482,-305 1482,-202.463 1108.42,-172.06 987.366,-164.9"/>
<polygon fill="black" stroke="black" points="987.297,-161.39 977.113,-164.314 986.897,-168.379 987.297,-161.39"/>
</g>
<!-- 4&#45;&gt;14 -->
<g id="edge60" class="edge"><title>4&#45;&gt;14</title>
<path fill="none" stroke="black" d="M802,-935.951C802,-909.292 802,-856.115 802,-811 802,-811 802,-811 802,-737 802,-662.809 848.892,-584.859 875.354,-546.777"/>
<polygon fill="black" stroke="black" points="878.359,-548.591 881.29,-538.41 872.649,-544.541 878.359,-548.591"/>
</g>
<!-- 16 -->
<g id="node17" class="node"><title>16</title>
<ellipse fill="none" stroke="black" cx="726" cy="-666" rx="27" ry="18"/>
<text text-anchor="middle" x="726" y="-662.3" font-family="Times,serif" font-size="14.00">M</text>
</g>
<!-- 4&#45;&gt;16 -->
<g id="edge39" class="edge"><title>4&#45;&gt;16</title>
<path fill="none" stroke="black" d="M797.473,-935.966C784.748,-888.079 748.582,-751.98 733.136,-693.852"/>
<polygon fill="black" stroke="black" points="736.454,-692.711 730.503,-683.945 729.689,-694.508 736.454,-692.711"/>
</g>
<!-- 21 -->
<g id="node22" class="node"><title>21</title>
<ellipse fill="none" stroke="black" cx="1157" cy="-378" rx="27" ry="18"/>
<text text-anchor="middle" x="1157" y="-374.3" font-family="Times,serif" font-size="14.00">L</text>
</g>
<!-- 4&#45;&gt;21 -->
<g id="edge46" class="edge"><title>4&#45;&gt;21</title>
<path fill="none" stroke="black" d="M829.021,-951.67C897.965,-946.888 1082.6,-925.196 1191,-828 1299.69,-730.544 1271.92,-647.483 1245,-504 1238.67,-470.254 1236.64,-460.16 1217,-432 1207.91,-418.974 1194.99,-407.018 1183.45,-397.771"/>
<polygon fill="black" stroke="black" points="1185.44,-394.878 1175.38,-391.54 1181.16,-400.42 1185.44,-394.878"/>
</g>
<!-- 25 -->
<g id="node26" class="node"><title>25</title>
<ellipse fill="none" stroke="black" cx="684" cy="-90" rx="27" ry="18"/>
<text text-anchor="middle" x="684" y="-86.3" font-family="Times,serif" font-size="14.00">T</text>
</g>
<!-- 4&#45;&gt;25 -->
<g id="edge27" class="edge"><title>4&#45;&gt;25</title>
<path fill="none" stroke="black" d="M775.316,-951.168C636.157,-941.267 0,-891.599 0,-811 0,-811 0,-811 0,-665 0,-553.168 19.2013,-514.225 95,-432 95.4331,-431.53 415.451,-252.327 416,-252 493.228,-206.002 509.52,-189.573 587,-144 609.317,-130.873 635.054,-116.861 654.407,-106.543"/>
<polygon fill="black" stroke="black" points="656.16,-109.575 663.352,-101.795 652.878,-103.393 656.16,-109.575"/>
</g>
<!-- 8 -->
<g id="node9" class="node"><title>8</title>
<ellipse fill="none" stroke="black" cx="549" cy="-450" rx="27" ry="18"/>
<text text-anchor="middle" x="549" y="-446.3" font-family="Times,serif" font-size="14.00">A</text>
</g>
<!-- 5&#45;&gt;8 -->
<g id="edge5" class="edge"><title>5&#45;&gt;8</title>
<path fill="none" stroke="black" d="M483.451,-875.924C428.497,-863.363 304,-825.373 304,-739 304,-739 304,-739 304,-593 304,-568.517 452.347,-496.155 518.172,-465.252"/>
<polygon fill="black" stroke="black" points="519.682,-468.41 527.258,-461.004 516.717,-462.069 519.682,-468.41"/>
</g>
<!-- 5&#45;&gt;9 -->
<g id="edge50" class="edge"><title>5&#45;&gt;9</title>
<path fill="none" stroke="black" d="M534.589,-875.853C595.803,-863.54 750.815,-832.359 821.223,-818.197"/>
<polygon fill="black" stroke="black" points="822.26,-821.558 831.373,-816.155 820.879,-814.696 822.26,-821.558"/>
</g>
<!-- 5&#45;&gt;11 -->
<g id="edge32" class="edge"><title>5&#45;&gt;11</title>
<path fill="none" stroke="black" d="M536.109,-879.567C655.02,-873.19 1127.38,-846.876 1191,-828 1318.78,-790.086 1444,-800.281 1444,-667 1444,-667 1444,-667 1444,-449 1444,-237.58 1100.92,-179.914 986.582,-166.566"/>
<polygon fill="black" stroke="black" points="986.887,-163.079 976.56,-165.442 986.107,-170.035 986.887,-163.079"/>
</g>
<!-- 12 -->
<g id="node13" class="node"><title>12</title>
<ellipse fill="none" stroke="black" cx="553" cy="-666" rx="27" ry="18"/>
<text text-anchor="middle" x="553" y="-662.3" font-family="Times,serif" font-size="14.00">J</text>
</g>
<!-- 5&#45;&gt;12 -->
<g id="edge87" class="edge"><title>5&#45;&gt;12</title>
<path fill="none" stroke="black" d="M512.526,-863.849C520.172,-826.662 538.325,-738.374 547.496,-693.772"/>
<polygon fill="black" stroke="black" points="550.932,-694.435 549.518,-683.935 544.076,-693.026 550.932,-694.435"/>
</g>
<!-- 5&#45;&gt;15 -->
<g id="edge53" class="edge"><title>5&#45;&gt;15</title>
<path fill="none" stroke="black" d="M483.038,-876.499C400.886,-861.527 152,-810.288 152,-739 152,-739 152,-739 152,-593 152,-475.23 574.338,-403.281 702.539,-384.154"/>
<polygon fill="black" stroke="black" points="703.254,-387.586 712.637,-382.666 702.234,-380.661 703.254,-387.586"/>
</g>
<!-- 18 -->
<g id="node19" class="node"><title>18</title>
<ellipse fill="none" stroke="black" cx="931" cy="-306" rx="27" ry="18"/>
<text text-anchor="middle" x="931" y="-302.3" font-family="Times,serif" font-size="14.00">I</text>
</g>
<!-- 5&#45;&gt;18 -->
<g id="edge85" class="edge"><title>5&#45;&gt;18</title>
<path fill="none" stroke="black" d="M481.73,-880.448C426.303,-878.457 297.406,-869.357 199,-828 136.794,-801.857 76,-806.477 76,-739 76,-739 76,-739 76,-521 76,-349.748 729.648,-314.364 893.9,-308.176"/>
<polygon fill="black" stroke="black" points="894.133,-311.67 903.999,-307.809 893.879,-304.674 894.133,-311.67"/>
</g>
<!-- 5&#45;&gt;20 -->
<g id="edge74" class="edge"><title>5&#45;&gt;20</title>
<path fill="none" stroke="black" d="M506.756,-863.849C501.913,-826.832 490.444,-739.181 484.583,-694.386"/>
<polygon fill="black" stroke="black" points="488.023,-693.694 483.255,-684.232 481.082,-694.602 488.023,-693.694"/>
</g>
<!-- 22 -->
<g id="node23" class="node"><title>22</title>
<ellipse fill="none" stroke="black" cx="667" cy="-450" rx="27" ry="18"/>
<text text-anchor="middle" x="667" y="-446.3" font-family="Times,serif" font-size="14.00">U</text>
</g>
<!-- 5&#45;&gt;22 -->
<g id="edge83" class="edge"><title>5&#45;&gt;22</title>
<path fill="none" stroke="black" d="M526.699,-867.861C555.175,-845.064 608,-795.199 608,-739 608,-739 608,-739 608,-665 608,-646.122 642.563,-530.779 658.781,-477.695"/>
<polygon fill="black" stroke="black" points="662.182,-478.541 661.764,-467.955 655.489,-476.491 662.182,-478.541"/>
</g>
<!-- 5&#45;&gt;23 -->
<g id="edge69" class="edge"><title>5&#45;&gt;23</title>
<path fill="none" stroke="black" d="M482.009,-880.344C401.356,-877.951 163.736,-867.623 99,-828 58.0986,-802.965 38,-786.955 38,-739 38,-739 38,-739 38,-665 38,-558.391 31.5939,-517.704 95,-432 163.65,-339.209 289.522,-274.835 348.254,-248.416"/>
<polygon fill="black" stroke="black" points="350.021,-251.461 357.749,-244.213 347.188,-245.06 350.021,-251.461"/>
</g>
<!-- 7 -->
<g id="node8" class="node"><title>7</title>
<ellipse fill="none" stroke="black" cx="1081" cy="-738" rx="27" ry="18"/>
<text text-anchor="middle" x="1081" y="-734.3" font-family="Times,serif" font-size="14.00">D</text>
</g>
<!-- 6&#45;&gt;7 -->
<g id="edge4" class="edge"><title>6&#45;&gt;7</title>
<path fill="none" stroke="black" d="M1140.02,-794.834C1129.49,-784.872 1115.22,-771.369 1103.34,-760.137"/>
<polygon fill="black" stroke="black" points="1105.62,-757.474 1095.95,-753.144 1100.81,-762.559 1105.62,-757.474"/>
</g>
<!-- 6&#45;&gt;10 -->
<g id="edge68" class="edge"><title>6&#45;&gt;10</title>
<path fill="none" stroke="black" d="M1149.63,-792.136C1143.33,-773.623 1131.83,-743.421 1117,-720 1109.98,-708.91 1100.64,-697.855 1092.14,-688.732"/>
<polygon fill="black" stroke="black" points="1094.42,-686.049 1084.96,-681.262 1089.37,-690.898 1094.42,-686.049"/>
</g>
<!-- 6&#45;&gt;11 -->
<g id="edge66" class="edge"><title>6&#45;&gt;11</title>
<path fill="none" stroke="black" d="M1179.07,-801.509C1241.89,-780.296 1406,-713.538 1406,-595 1406,-595 1406,-595 1406,-449 1406,-273.071 1240.35,-300.418 1086,-216 1052.83,-197.86 1012.14,-182.864 983.952,-173.508"/>
<polygon fill="black" stroke="black" points="984.763,-170.091 974.171,-170.32 982.594,-176.747 984.763,-170.091"/>
</g>
<!-- 6&#45;&gt;15 -->
<g id="edge67" class="edge"><title>6&#45;&gt;15</title>
<path fill="none" stroke="black" d="M1153.53,-791.945C1151.64,-773.787 1147.65,-744.369 1140,-720 1118.33,-650.953 1114.74,-627.6 1064,-576 974.202,-484.676 833.722,-418.579 771.051,-391.96"/>
<polygon fill="black" stroke="black" points="772.256,-388.67 761.681,-388.029 769.548,-395.125 772.256,-388.67"/>
</g>
<!-- 6&#45;&gt;18 -->
<g id="edge57" class="edge"><title>6&#45;&gt;18</title>
<path fill="none" stroke="black" d="M1169.08,-794.542C1209.18,-751.559 1318.98,-620.303 1285,-504 1263.7,-431.101 1255.64,-402.941 1193,-360 1156.82,-335.196 1031.18,-318.121 967.949,-310.888"/>
<polygon fill="black" stroke="black" points="967.959,-307.367 957.631,-309.732 967.179,-314.324 967.959,-307.367"/>
</g>
<!-- 7&#45;&gt;3 -->
<g id="edge48" class="edge"><title>7&#45;&gt;3</title>
<path fill="none" stroke="black" d="M1057.03,-729.509C1017.05,-717.016 936.652,-691.891 890.893,-677.592"/>
<polygon fill="black" stroke="black" points="891.727,-674.185 881.138,-674.543 889.639,-680.867 891.727,-674.185"/>
</g>
<!-- 7&#45;&gt;14 -->
<g id="edge10" class="edge"><title>7&#45;&gt;14</title>
<path fill="none" stroke="black" d="M1067.44,-722.095C1046.25,-698.764 1004.11,-652.135 969,-612 949.511,-589.72 927.59,-563.975 912.317,-545.924"/>
<polygon fill="black" stroke="black" points="914.928,-543.591 905.8,-538.212 909.581,-548.109 914.928,-543.591"/>
</g>
<!-- 7&#45;&gt;21 -->
<g id="edge71" class="edge"><title>7&#45;&gt;21</title>
<path fill="none" stroke="black" d="M1102.23,-726.574C1136.09,-708.602 1201.12,-668.228 1227,-612 1260.7,-538.773 1205.25,-445.23 1174.84,-402.362"/>
<polygon fill="black" stroke="black" points="1177.66,-400.283 1168.95,-394.247 1171.99,-404.395 1177.66,-400.283"/>
</g>
<!-- 8&#45;&gt;11 -->
<g id="edge76" class="edge"><title>8&#45;&gt;11</title>
<path fill="none" stroke="black" d="M566.787,-436.265C581.621,-425.601 603.279,-409.932 622,-396 727.826,-317.244 748.175,-289.076 858,-216 878.349,-202.46 902.3,-188.727 920.662,-178.634"/>
<polygon fill="black" stroke="black" points="922.339,-181.706 929.446,-173.849 918.991,-175.559 922.339,-181.706"/>
</g>
<!-- 8&#45;&gt;15 -->
<g id="edge18" class="edge"><title>8&#45;&gt;15</title>
<path fill="none" stroke="black" d="M571.473,-439.438C577.468,-436.955 583.959,-434.325 590,-432 629.481,-416.805 675.413,-400.701 705.729,-390.287"/>
<polygon fill="black" stroke="black" points="707.052,-393.534 715.379,-386.983 704.784,-386.911 707.052,-393.534"/>
</g>
<!-- 8&#45;&gt;23 -->
<g id="edge101" class="edge"><title>8&#45;&gt;23</title>
<path fill="none" stroke="black" d="M538.753,-433.34C519.236,-403.887 474.847,-338.648 432,-288 422.803,-277.128 411.86,-265.77 402.391,-256.37"/>
<polygon fill="black" stroke="black" points="404.767,-253.797 395.175,-249.298 399.867,-258.797 404.767,-253.797"/>
</g>
<!-- 8&#45;&gt;25 -->
<g id="edge52" class="edge"><title>8&#45;&gt;25</title>
<path fill="none" stroke="black" d="M560.376,-433.278C577.521,-407.988 608,-356.121 608,-307 608,-307 608,-307 608,-233 608,-186.121 640.597,-139.74 663.094,-113.312"/>
<polygon fill="black" stroke="black" points="665.744,-115.599 669.705,-105.772 660.481,-110.984 665.744,-115.599"/>
</g>
<!-- 9&#45;&gt;1 -->
<g id="edge6" class="edge"><title>9&#45;&gt;1</title>
<path fill="none" stroke="black" d="M857,-791.697C857,-783.983 857,-774.712 857,-766.112"/>
<polygon fill="black" stroke="black" points="860.5,-766.104 857,-756.104 853.5,-766.104 860.5,-766.104"/>
</g>
<!-- 13 -->
<g id="node14" class="node"><title>13</title>
<ellipse fill="none" stroke="black" cx="1005" cy="-594" rx="27" ry="18"/>
<text text-anchor="middle" x="1005" y="-590.3" font-family="Times,serif" font-size="14.00">R</text>
</g>
<!-- 9&#45;&gt;13 -->
<g id="edge44" class="edge"><title>9&#45;&gt;13</title>
<path fill="none" stroke="black" d="M867.883,-793.264C893.488,-756.24 957.686,-663.414 988.28,-619.176"/>
<polygon fill="black" stroke="black" points="991.292,-620.975 994.101,-610.759 985.534,-616.993 991.292,-620.975"/>
</g>
<!-- 10&#45;&gt;11 -->
<g id="edge7" class="edge"><title>10&#45;&gt;11</title>
<path fill="none" stroke="black" d="M1097.14,-664.791C1133.62,-662.866 1197.31,-653.365 1227,-612 1260.89,-564.792 1351.01,-651.279 1193,-360 1143.9,-269.482 1034.22,-204.978 980.641,-177.611"/>
<polygon fill="black" stroke="black" points="982.129,-174.442 971.622,-173.085 978.99,-180.698 982.129,-174.442"/>
</g>
<!-- 10&#45;&gt;13 -->
<g id="edge88" class="edge"><title>10&#45;&gt;13</title>
<path fill="none" stroke="black" d="M1056.22,-650.155C1047.34,-640.596 1035.64,-627.994 1025.66,-617.249"/>
<polygon fill="black" stroke="black" points="1028.13,-614.77 1018.76,-609.824 1023,-619.533 1028.13,-614.77"/>
</g>
<!-- 10&#45;&gt;14 -->
<g id="edge95" class="edge"><title>10&#45;&gt;14</title>
<path fill="none" stroke="black" d="M1068.86,-647.975C1066.65,-628.176 1060.14,-595.699 1041,-576 1025.03,-559.558 966.287,-541.873 927.787,-531.656"/>
<polygon fill="black" stroke="black" points="928.555,-528.239 917.995,-529.102 926.788,-535.012 928.555,-528.239"/>
</g>
<!-- 10&#45;&gt;15 -->
<g id="edge49" class="edge"><title>10&#45;&gt;15</title>
<path fill="none" stroke="black" d="M1073.25,-647.877C1075.92,-628.864 1077.36,-597.962 1064,-576 996.965,-465.822 842.826,-409.045 773.678,-388.354"/>
<polygon fill="black" stroke="black" points="774.304,-384.891 763.724,-385.451 772.344,-391.611 774.304,-384.891"/>
</g>
<!-- 24 -->
<g id="node25" class="node"><title>24</title>
<ellipse fill="none" stroke="black" cx="684" cy="-18" rx="27" ry="18"/>
<text text-anchor="middle" x="684" y="-14.3" font-family="Times,serif" font-size="14.00">N</text>
</g>
<!-- 11&#45;&gt;24 -->
<g id="edge24" class="edge"><title>11&#45;&gt;24</title>
<path fill="none" stroke="black" d="M942.94,-144.52C933.431,-124.322 914.58,-90.5086 888,-72 837.232,-36.6488 764.55,-24.8746 721.038,-20.9547"/>
<polygon fill="black" stroke="black" points="721.147,-17.4522 710.898,-20.1364 720.584,-24.4295 721.147,-17.4522"/>
</g>
<!-- 11&#45;&gt;25 -->
<g id="edge30" class="edge"><title>11&#45;&gt;25</title>
<path fill="none" stroke="black" d="M924.975,-154.415C877.226,-141.849 773.036,-114.431 718.634,-100.114"/>
<polygon fill="black" stroke="black" points="719.326,-96.6772 708.764,-97.5169 717.544,-103.447 719.326,-96.6772"/>
</g>
<!-- 12&#45;&gt;8 -->
<g id="edge47" class="edge"><title>12&#45;&gt;8</title>
<path fill="none" stroke="black" d="M533.128,-653.634C513.277,-641.81 484.886,-623.455 479,-612 454.088,-563.516 498.147,-504.198 526.968,-472.846"/>
<polygon fill="black" stroke="black" points="529.587,-475.171 533.916,-465.502 524.501,-470.361 529.587,-475.171"/>
</g>
<!-- 12&#45;&gt;13 -->
<g id="edge9" class="edge"><title>12&#45;&gt;13</title>
<path fill="none" stroke="black" d="M579.255,-660.934C656.113,-649.031 880.747,-614.243 968.9,-600.591"/>
<polygon fill="black" stroke="black" points="969.608,-604.023 978.955,-599.034 968.537,-597.105 969.608,-604.023"/>
</g>
<!-- 12&#45;&gt;14 -->
<g id="edge78" class="edge"><title>12&#45;&gt;14</title>
<path fill="none" stroke="black" d="M575.308,-655.683C634.027,-631.16 793.024,-564.755 861.228,-536.269"/>
<polygon fill="black" stroke="black" points="862.731,-539.435 870.61,-532.351 860.033,-532.976 862.731,-539.435"/>
</g>
<!-- 12&#45;&gt;24 -->
<g id="edge38" class="edge"><title>12&#45;&gt;24</title>
<path fill="none" stroke="black" d="M532.679,-654.064C494.851,-633.419 411.526,-586.58 346,-540 254.676,-475.081 152,-491.047 152,-379 152,-379 152,-379 152,-161 152,-94.9555 209.787,-96.7971 271,-72 339.005,-44.4513 558.849,-27.267 646.966,-21.3322"/>
<polygon fill="black" stroke="black" points="647.293,-24.8183 657.04,-20.6643 646.83,-17.8336 647.293,-24.8183"/>
</g>
<!-- 13&#45;&gt;14 -->
<g id="edge73" class="edge"><title>13&#45;&gt;14</title>
<path fill="none" stroke="black" d="M986.001,-581.125C968.06,-569.913 940.949,-552.968 920.62,-540.263"/>
<polygon fill="black" stroke="black" points="922.427,-537.265 912.092,-534.933 918.717,-543.201 922.427,-537.265"/>
</g>
<!-- 13&#45;&gt;18 -->
<g id="edge13" class="edge"><title>13&#45;&gt;18</title>
<path fill="none" stroke="black" d="M1000.59,-575.966C988.202,-528.079 952.988,-391.98 937.948,-333.852"/>
<polygon fill="black" stroke="black" points="941.278,-332.749 935.384,-323.945 934.501,-334.503 941.278,-332.749"/>
</g>
<!-- 13&#45;&gt;21 -->
<g id="edge96" class="edge"><title>13&#45;&gt;21</title>
<path fill="none" stroke="black" d="M1016.18,-577.264C1042.54,-540.149 1108.73,-446.961 1140.06,-402.853"/>
<polygon fill="black" stroke="black" points="1143.07,-404.65 1146.01,-394.47 1137.37,-400.596 1143.07,-404.65"/>
</g>
<!-- 14&#45;&gt;8 -->
<g id="edge61" class="edge"><title>14&#45;&gt;8</title>
<path fill="none" stroke="black" d="M867.331,-515.85C820.4,-506.425 717.609,-485.738 631,-468 615.756,-464.878 598.927,-461.395 584.501,-458.399"/>
<polygon fill="black" stroke="black" points="584.983,-454.924 574.48,-456.315 583.558,-461.778 584.983,-454.924"/>
</g>
<!-- 14&#45;&gt;18 -->
<g id="edge56" class="edge"><title>14&#45;&gt;18</title>
<path fill="none" stroke="black" d="M896.045,-503.849C902.635,-466.74 918.26,-378.747 926.196,-334.054"/>
<polygon fill="black" stroke="black" points="929.69,-334.393 927.993,-323.935 922.798,-333.169 929.69,-334.393"/>
</g>
<!-- 14&#45;&gt;21 -->
<g id="edge17" class="edge"><title>14&#45;&gt;21</title>
<path fill="none" stroke="black" d="M913.277,-510.093C959.635,-485.158 1073.52,-423.901 1127.59,-394.819"/>
<polygon fill="black" stroke="black" points="1129.5,-397.763 1136.65,-389.944 1126.19,-391.599 1129.5,-397.763"/>
</g>
<!-- 14&#45;&gt;22 -->
<g id="edge40" class="edge"><title>14&#45;&gt;22</title>
<path fill="none" stroke="black" d="M868.814,-513.509C828.374,-500.983 746.937,-475.759 700.833,-461.479"/>
<polygon fill="black" stroke="black" points="701.6,-458.053 691.012,-458.437 699.529,-464.739 701.6,-458.053"/>
</g>
<!-- 14&#45;&gt;25 -->
<g id="edge55" class="edge"><title>14&#45;&gt;25</title>
<path fill="none" stroke="black" d="M885.062,-504.669C853.314,-439.349 735.318,-196.582 696.481,-116.68"/>
<polygon fill="black" stroke="black" points="699.465,-114.812 691.946,-107.348 693.169,-117.872 699.465,-114.812"/>
</g>
<!-- 15&#45;&gt;11 -->
<g id="edge21" class="edge"><title>15&#45;&gt;11</title>
<path fill="none" stroke="black" d="M753.172,-362.627C789.346,-325.938 885.279,-228.641 928.434,-184.873"/>
<polygon fill="black" stroke="black" points="931.083,-187.171 935.612,-177.593 926.099,-182.256 931.083,-187.171"/>
</g>
<!-- 15&#45;&gt;18 -->
<g id="edge65" class="edge"><title>15&#45;&gt;18</title>
<path fill="none" stroke="black" d="M761.006,-367.511C767.119,-364.975 773.786,-362.301 780,-360 828.239,-342.136 841.761,-341.864 890,-324 893.107,-322.849 896.327,-321.606 899.535,-320.332"/>
<polygon fill="black" stroke="black" points="901.047,-323.496 908.994,-316.489 898.412,-317.011 901.047,-323.496"/>
</g>
<!-- 15&#45;&gt;24 -->
<g id="edge41" class="edge"><title>15&#45;&gt;24</title>
<path fill="none" stroke="black" d="M731.283,-360.496C712.42,-319.134 664.331,-207.24 648,-108 645.402,-92.2123 643.297,-87.2933 648,-72 651.286,-61.3149 657.54,-50.851 663.925,-42.0814"/>
<polygon fill="black" stroke="black" points="666.884,-43.9774 670.25,-33.9312 661.354,-39.6861 666.884,-43.9774"/>
</g>
<!-- 16&#45;&gt;8 -->
<g id="edge31" class="edge"><title>16&#45;&gt;8</title>
<path fill="none" stroke="black" d="M710.106,-651.267C698.503,-640.937 682.658,-626.181 670,-612 629.137,-566.22 587.434,-507.543 565.248,-475.167"/>
<polygon fill="black" stroke="black" points="568.047,-473.06 559.524,-466.765 562.262,-477.001 568.047,-473.06"/>
</g>
<!-- 16&#45;&gt;13 -->
<g id="edge36" class="edge"><title>16&#45;&gt;13</title>
<path fill="none" stroke="black" d="M750.759,-658.788C800.477,-646.314 912.581,-618.188 969.864,-603.815"/>
<polygon fill="black" stroke="black" points="971.047,-607.127 979.895,-601.299 969.344,-600.338 971.047,-607.127"/>
</g>
<!-- 16&#45;&gt;14 -->
<g id="edge82" class="edge"><title>16&#45;&gt;14</title>
<path fill="none" stroke="black" d="M742.013,-651.384C771.489,-626.321 834.476,-572.763 869.054,-543.361"/>
<polygon fill="black" stroke="black" points="871.439,-545.927 876.79,-536.783 866.905,-540.594 871.439,-545.927"/>
</g>
<!-- 16&#45;&gt;15 -->
<g id="edge45" class="edge"><title>16&#45;&gt;15</title>
<path fill="none" stroke="black" d="M727.727,-647.631C730.049,-623.509 734.104,-578.487 736,-540 738.301,-493.292 738.876,-438.883 738.998,-406.78"/>
<polygon fill="black" stroke="black" points="742.499,-406.413 739.024,-396.404 735.499,-406.395 742.499,-406.413"/>
</g>
<!-- 17 -->
<g id="node18" class="node"><title>17</title>
<ellipse fill="none" stroke="black" cx="515" cy="-594" rx="27" ry="18"/>
<text text-anchor="middle" x="515" y="-590.3" font-family="Times,serif" font-size="14.00">Z</text>
</g>
<!-- 16&#45;&gt;17 -->
<g id="edge12" class="edge"><title>16&#45;&gt;17</title>
<path fill="none" stroke="black" d="M702.206,-657.106C664.589,-644.627 591.266,-620.301 548.396,-606.079"/>
<polygon fill="black" stroke="black" points="549.301,-602.692 538.707,-602.865 547.096,-609.336 549.301,-602.692"/>
</g>
<!-- 16&#45;&gt;18 -->
<g id="edge99" class="edge"><title>16&#45;&gt;18</title>
<path fill="none" stroke="black" d="M735.341,-648.687C768.033,-591.596 877.443,-400.529 916.77,-331.851"/>
<polygon fill="black" stroke="black" points="919.906,-333.417 921.838,-322.999 913.832,-329.938 919.906,-333.417"/>
</g>
<!-- 17&#45;&gt;8 -->
<g id="edge86" class="edge"><title>17&#45;&gt;8</title>
<path fill="none" stroke="black" d="M519.034,-576.153C524.862,-551.813 535.695,-506.568 542.615,-477.665"/>
<polygon fill="black" stroke="black" points="546.047,-478.365 544.971,-467.825 539.239,-476.735 546.047,-478.365"/>
</g>
<!-- 17&#45;&gt;14 -->
<g id="edge77" class="edge"><title>17&#45;&gt;14</title>
<path fill="none" stroke="black" d="M540.684,-588.244C606.546,-576.047 781.574,-543.634 857.279,-529.615"/>
<polygon fill="black" stroke="black" points="858.085,-533.025 867.28,-527.763 856.81,-526.142 858.085,-533.025"/>
</g>
<!-- 17&#45;&gt;15 -->
<g id="edge16" class="edge"><title>17&#45;&gt;15</title>
<path fill="none" stroke="black" d="M525.099,-576.992C548.124,-540.851 604.549,-454.34 631,-432 653.101,-413.335 682.9,-399.353 705.599,-390.45"/>
<polygon fill="black" stroke="black" points="707.046,-393.644 715.161,-386.832 704.57,-387.097 707.046,-393.644"/>
</g>
<!-- 17&#45;&gt;22 -->
<g id="edge63" class="edge"><title>17&#45;&gt;22</title>
<path fill="none" stroke="black" d="M532.937,-580.479C547.255,-570.192 567.567,-554.933 584,-540 607.155,-518.958 631.294,-492.479 647.532,-473.894"/>
<polygon fill="black" stroke="black" points="650.29,-476.056 654.192,-466.205 644.999,-471.472 650.29,-476.056"/>
</g>
<!-- 17&#45;&gt;23 -->
<g id="edge58" class="edge"><title>17&#45;&gt;23</title>
<path fill="none" stroke="black" d="M497.658,-579.781C469.758,-556.865 418,-506.83 418,-451 418,-451 418,-451 418,-377 418,-335.406 402.597,-289.217 391.404,-261.143"/>
<polygon fill="black" stroke="black" points="394.546,-259.581 387.508,-251.662 388.072,-262.242 394.546,-259.581"/>
</g>
<!-- 17&#45;&gt;24 -->
<g id="edge91" class="edge"><title>17&#45;&gt;24</title>
<path fill="none" stroke="black" d="M492.48,-583.774C424.822,-554.398 228,-456.126 228,-307 228,-307 228,-307 228,-161 228,-73.4335 538.414,-33.6991 647.018,-22.477"/>
<polygon fill="black" stroke="black" points="647.58,-25.9381 657.178,-21.4501 646.876,-18.9736 647.58,-25.9381"/>
</g>
<!-- 17&#45;&gt;25 -->
<g id="edge62" class="edge"><title>17&#45;&gt;25</title>
<path fill="none" stroke="black" d="M512.751,-575.916C509.308,-546.336 504.019,-483.78 513,-432 536.231,-298.06 536.341,-254.155 616,-144 626.433,-129.573 641.851,-117.111 655.369,-107.902"/>
<polygon fill="black" stroke="black" points="657.444,-110.728 663.907,-102.333 653.619,-104.865 657.444,-110.728"/>
</g>
<!-- 18&#45;&gt;11 -->
<g id="edge22" class="edge"><title>18&#45;&gt;11</title>
<path fill="none" stroke="black" d="M933.292,-287.871C936.53,-263.67 942.479,-219.211 946.335,-190.393"/>
<polygon fill="black" stroke="black" points="949.843,-190.565 947.7,-180.189 942.905,-189.637 949.843,-190.565"/>
</g>
<!-- 18&#45;&gt;23 -->
<g id="edge94" class="edge"><title>18&#45;&gt;23</title>
<path fill="none" stroke="black" d="M904.424,-301.624C814.225,-290.165 519.662,-252.743 416.269,-239.608"/>
<polygon fill="black" stroke="black" points="416.671,-236.131 406.309,-238.342 415.788,-243.075 416.671,-236.131"/>
</g>
<!-- 18&#45;&gt;24 -->
<g id="edge92" class="edge"><title>18&#45;&gt;24</title>
<path fill="none" stroke="black" d="M918.068,-290.026C877.481,-243.03 752.436,-98.2411 703.717,-41.8302"/>
<polygon fill="black" stroke="black" points="706.287,-39.4513 697.102,-34.1707 700.989,-44.0267 706.287,-39.4513"/>
</g>
<!-- 18&#45;&gt;25 -->
<g id="edge28" class="edge"><title>18&#45;&gt;25</title>
<path fill="none" stroke="black" d="M907.158,-296.949C883.835,-288.298 848.111,-272.919 822,-252 774.114,-213.635 776.652,-189.961 736,-144 726.566,-133.334 715.591,-122.004 706.161,-112.569"/>
<polygon fill="black" stroke="black" points="708.555,-110.014 698.99,-105.458 703.626,-114.984 708.555,-110.014"/>
</g>
<!-- 19&#45;&gt;14 -->
<g id="edge14" class="edge"><title>19&#45;&gt;14</title>
<path fill="none" stroke="black" d="M1165.85,-587.092C1112.66,-574.598 988.667,-545.472 927.869,-531.191"/>
<polygon fill="black" stroke="black" points="928.513,-527.747 917.978,-528.867 926.913,-534.561 928.513,-527.747"/>
</g>
<!-- 19&#45;&gt;18 -->
<g id="edge42" class="edge"><title>19&#45;&gt;18</title>
<path fill="none" stroke="black" d="M1173.41,-580.114C1159.88,-569.866 1141.02,-554.833 1126,-540 1054.36,-469.271 981.158,-374.502 948.54,-330.847"/>
<polygon fill="black" stroke="black" points="951.166,-328.513 942.39,-322.577 945.549,-332.69 951.166,-328.513"/>
</g>
<!-- 19&#45;&gt;21 -->
<g id="edge98" class="edge"><title>19&#45;&gt;21</title>
<path fill="none" stroke="black" d="M1188.28,-575.849C1182.38,-538.74 1168.4,-450.747 1161.3,-406.054"/>
<polygon fill="black" stroke="black" points="1164.72,-405.262 1159.69,-395.935 1157.8,-406.361 1164.72,-405.262"/>
</g>
<!-- 19&#45;&gt;24 -->
<g id="edge34" class="edge"><title>19&#45;&gt;24</title>
<path fill="none" stroke="black" d="M1207.16,-579.162C1257.16,-534.712 1406,-389.425 1406,-235 1406,-235 1406,-235 1406,-161 1406,-20.1685 870.444,-16.5909 721.837,-18.309"/>
<polygon fill="black" stroke="black" points="721.375,-14.8147 711.422,-18.4459 721.467,-21.8141 721.375,-14.8147"/>
</g>
<!-- 19&#45;&gt;25 -->
<g id="edge59" class="edge"><title>19&#45;&gt;25</title>
<path fill="none" stroke="black" d="M1181.84,-577.041C1153.95,-529.333 1065.94,-385.095 967,-288 887.792,-210.267 854.42,-206.919 763,-144 745.827,-132.181 726.382,-119.132 711.082,-108.939"/>
<polygon fill="black" stroke="black" points="712.865,-105.922 702.6,-103.299 708.989,-111.75 712.865,-105.922"/>
</g>
<!-- 20&#45;&gt;15 -->
<g id="edge84" class="edge"><title>20&#45;&gt;15</title>
<path fill="none" stroke="black" d="M475.322,-648.038C472.178,-637.745 468.593,-624.269 467,-612 456.368,-530.116 448.502,-483.556 513,-432 567.99,-388.045 653.162,-379.399 701.722,-378.341"/>
<polygon fill="black" stroke="black" points="701.837,-381.84 711.794,-378.219 701.753,-374.84 701.837,-381.84"/>
</g>
<!-- 20&#45;&gt;17 -->
<g id="edge15" class="edge"><title>20&#45;&gt;17</title>
<path fill="none" stroke="black" d="M488.886,-648.765C492.904,-640.491 497.887,-630.232 502.42,-620.9"/>
<polygon fill="black" stroke="black" points="505.7,-622.158 506.921,-611.633 499.404,-619.099 505.7,-622.158"/>
</g>
<!-- 20&#45;&gt;22 -->
<g id="edge70" class="edge"><title>20&#45;&gt;22</title>
<path fill="none" stroke="black" d="M499.315,-652.629C513.907,-642.428 534.545,-627.21 551,-612 582.44,-582.938 589.855,-574.653 615,-540 629.857,-519.525 644.161,-494.525 653.994,-476.241"/>
<polygon fill="black" stroke="black" points="657.115,-477.825 658.707,-467.351 650.93,-474.546 657.115,-477.825"/>
</g>
<!-- 20&#45;&gt;23 -->
<g id="edge26" class="edge"><title>20&#45;&gt;23</title>
<path fill="none" stroke="black" d="M468.556,-649.903C437.332,-610.922 356.163,-502.479 328,-396 315.726,-349.596 309.843,-332.433 328,-288 333.387,-274.818 343.807,-263.144 353.914,-254.13"/>
<polygon fill="black" stroke="black" points="356.424,-256.594 361.851,-247.494 351.934,-251.224 356.424,-256.594"/>
</g>
<!-- 21&#45;&gt;11 -->
<g id="edge20" class="edge"><title>21&#45;&gt;11</title>
<path fill="none" stroke="black" d="M1142.77,-362.291C1107.01,-325.322 1013.23,-228.369 971.067,-184.779"/>
<polygon fill="black" stroke="black" points="973.522,-182.283 964.054,-177.529 968.491,-187.15 973.522,-182.283"/>
</g>
<!-- 21&#45;&gt;18 -->
<g id="edge37" class="edge"><title>21&#45;&gt;18</title>
<path fill="none" stroke="black" d="M1132.81,-369.509C1092.37,-356.983 1010.94,-331.759 964.833,-317.479"/>
<polygon fill="black" stroke="black" points="965.6,-314.053 955.012,-314.437 963.529,-320.739 965.6,-314.053"/>
</g>
<!-- 21&#45;&gt;24 -->
<g id="edge35" class="edge"><title>21&#45;&gt;24</title>
<path fill="none" stroke="black" d="M1149.74,-360.456C1125.66,-307.764 1042.76,-143.159 918,-72 854.964,-36.0462 769.353,-24.4823 721.086,-20.7631"/>
<polygon fill="black" stroke="black" points="721.308,-17.2701 711.088,-20.0646 720.82,-24.2531 721.308,-17.2701"/>
</g>
<!-- 22&#45;&gt;15 -->
<g id="edge64" class="edge"><title>22&#45;&gt;15</title>
<path fill="none" stroke="black" d="M681.57,-434.834C691.75,-424.938 705.524,-411.546 717.031,-400.359"/>
<polygon fill="black" stroke="black" points="719.474,-402.865 724.204,-393.385 714.595,-397.846 719.474,-402.865"/>
</g>
<!-- 22&#45;&gt;18 -->
<g id="edge51" class="edge"><title>22&#45;&gt;18</title>
<path fill="none" stroke="black" d="M688.715,-438.832C710.667,-428.44 745.473,-411.649 775,-396 820.192,-372.05 871.518,-342.252 902.563,-323.933"/>
<polygon fill="black" stroke="black" points="904.693,-326.74 911.517,-318.636 901.128,-320.715 904.693,-326.74"/>
</g>
<!-- 22&#45;&gt;21 -->
<g id="edge19" class="edge"><title>22&#45;&gt;21</title>
<path fill="none" stroke="black" d="M693.345,-445.236C775.446,-433.508 1026.8,-397.6 1120.92,-384.154"/>
<polygon fill="black" stroke="black" points="1121.42,-387.619 1130.82,-382.74 1120.43,-380.689 1121.42,-387.619"/>
</g>
<!-- 22&#45;&gt;23 -->
<g id="edge80" class="edge"><title>22&#45;&gt;23</title>
<path fill="none" stroke="black" d="M650.575,-435.672C615.805,-407.596 531.964,-340.622 459,-288 442.091,-275.805 422.65,-262.751 407.285,-252.65"/>
<polygon fill="black" stroke="black" points="409.044,-249.618 398.76,-247.072 405.212,-255.476 409.044,-249.618"/>
</g>
<!-- 22&#45;&gt;25 -->
<g id="edge54" class="edge"><title>22&#45;&gt;25</title>
<path fill="none" stroke="black" d="M670.359,-432.029C675.313,-405.475 684,-352.437 684,-307 684,-307 684,-307 684,-233 684,-192.996 684,-146.653 684,-118.08"/>
<polygon fill="black" stroke="black" points="687.5,-118.049 684,-108.049 680.5,-118.049 687.5,-118.049"/>
</g>
<!-- 23&#45;&gt;11 -->
<g id="edge81" class="edge"><title>23&#45;&gt;11</title>
<path fill="none" stroke="black" d="M406.349,-229.764C498.628,-218.432 807.37,-180.516 913.672,-167.461"/>
<polygon fill="black" stroke="black" points="914.104,-170.935 923.603,-166.242 913.25,-163.987 914.104,-170.935"/>
</g>
<!-- 23&#45;&gt;24 -->
<g id="edge23" class="edge"><title>23&#45;&gt;24</title>
<path fill="none" stroke="black" d="M377.585,-216.057C375.772,-196.925 375.658,-165.646 390,-144 448.182,-56.1854 581.856,-29.8681 646.983,-22.133"/>
<polygon fill="black" stroke="black" points="647.641,-25.5817 657.197,-21.0065 646.874,-18.6239 647.641,-25.5817"/>
</g>
<!-- 23&#45;&gt;25 -->
<g id="edge89" class="edge"><title>23&#45;&gt;25</title>
<path fill="none" stroke="black" d="M383.011,-216.047C387.552,-195.691 398.18,-162.042 421,-144 455.698,-116.568 583.671,-100.668 647.419,-94.2872"/>
<polygon fill="black" stroke="black" points="647.828,-97.764 657.441,-93.3097 647.148,-90.797 647.828,-97.764"/>
</g>
<!-- 25&#45;&gt;24 -->
<g id="edge25" class="edge"><title>25&#45;&gt;24</title>
<path fill="none" stroke="black" d="M684,-71.6966C684,-63.9827 684,-54.7125 684,-46.1124"/>
<polygon fill="black" stroke="black" points="687.5,-46.1043 684,-36.1043 680.5,-46.1044 687.5,-46.1043"/>
</g>
</g>
</svg>
